
<svg viewBox="0 0 200 200" xmlns="http://www.w3.org/2000/svg">
<defs>
    <clipPath id="clip">
  <path fill="#FF0066" d="M23.9,-44.8C27.7,-39.2,25.3,-26.2,27.3,-17.5C29.3,-8.8,35.8,-4.4,36.4,0.3C37,5.1,31.6,10.1,31.2,21.5C30.7,32.9,35.1,50.6,30.7,60C26.3,69.4,13.2,70.4,-0.6,71.3C-14.3,72.3,-28.5,73.2,-37.5,66.5C-46.5,59.8,-50.1,45.4,-48.6,33.1C-47.1,20.7,-40.4,10.4,-43.3,-1.7C-46.3,-13.8,-59,-27.6,-57.3,-34.4C-55.6,-41.1,-39.6,-40.9,-27.6,-41.9C-15.7,-42.8,-7.8,-44.8,1.1,-46.7C10.1,-48.6,20.1,-50.4,23.9,-44.8Z" transform="translate(100 100)" />
</clipPath>
</defs>
</svg>

